<?xml version="1.0" encoding="UTF-8"?><svg version="1.1" width="152px" height="12px" viewBox="0 0 152.0 12.0" xmlns="http://www.w3.org/2000/svg" xmlns:xlink="http://www.w3.org/1999/xlink"><defs><clipPath id="i0"><path d="M7,0 C10.8659932,0 14,2.23857625 14,5 C14,7.76142375 10.8659932,10 7,10 C3.1340068,10 0,7.76142375 0,5 C0,2.23857625 3.1340068,0 7,0 Z M7,2 C4.2385763,2 2,3.34314575 2,5 C2,6.65685425 4.2385763,8 7,8 C9.7614237,8 12,6.65685425 12,5 C12,3.34314575 9.7614237,2 7,2 Z"></path></clipPath><clipPath id="i1"><path d="M0,0 L13.3428571,5 L67,5 L67,7 L13.3238231,7 L0,12 C1.53376906,9.99598868 2.30065359,7.99456112 2.30065359,5.99571734 C2.30065359,3.99687356 1.53376906,1.99830112 0,0 Z"></path></clipPath><clipPath id="i2"><path d="M0,0 L13.3428571,5 L67,5 L67,7 L13.3238231,7 L0,12 C1.5337691,9.99598868 2.3006536,7.99456112 2.3006536,5.99571734 C2.3006536,3.99687356 1.5337691,1.99830112 0,0 Z"></path></clipPath></defs><g transform="translate(69.0 1.0)"><g clip-path="url(#i0)"><polygon points="0,0 14,0 14,10 0,10 0,0" stroke="none" fill="#E8BD30"></polygon></g></g><g transform="translate(67.0 0.0) scale(-1.0 1.0)"><g clip-path="url(#i1)"><polygon points="0,0 67,0 67,12 0,12 0,0" stroke="none" fill="#E8BD30"></polygon></g></g><g transform="translate(85.0 0.0)"><g clip-path="url(#i2)"><polygon points="0,0 67,0 67,12 0,12 0,0" stroke="none" fill="#E8BD30"></polygon></g></g></svg>